<?xml version="1.0" encoding="utf-8"?>
<!-- Generator: Adobe Illustrator 16.0.4, SVG Export Plug-In . SVG Version: 6.00 Build 0)  -->
<!DOCTYPE svg PUBLIC "-//W3C//DTD SVG 1.1//EN" "http://www.w3.org/Graphics/SVG/1.1/DTD/svg11.dtd">
<svg version="1.1" id="Layer_1" xmlns="http://www.w3.org/2000/svg" xmlns:xlink="http://www.w3.org/1999/xlink" x="0px" y="0px"
	 width="560px" height="157px" viewBox="0 0 560 157" enable-background="new 0 0 560 157" xml:space="preserve">
<polygon fill="#050606" points="19.826,145.138 40.763,145.138 42.419,133.451 21.757,133.451 "/>
<polygon fill="#050606" points="29.747,88.348 49.855,88.348 55.367,48.956 61.149,88.348 80.987,88.348 68.864,18.522 
	41.863,18.522 "/>
<polygon fill="#050606" points="68.039,133.451 88.429,133.451 90.633,145.138 69.968,145.138 "/>
<rect x="103.305" y="18.522" fill="#050606" width="19.286" height="69.826"/>
<rect x="144.628" y="18.522" fill="#050606" width="20.387" height="69.826"/>
<path fill="#050606" d="M108.538,133.451h51.239c0,0-8.809,13.856-26.17,13.043C116.252,145.682,111.57,136.172,108.538,133.451"/>
<path fill="#050606" d="M187.605,133.451h51.242c0,0-8.814,13.856-26.169,13.043C195.321,145.682,190.636,136.172,187.605,133.451"
	/>
<path fill="#050606" d="M206.614,88.348h27.552c0,0-8.541-9.508-13.776-13.581c-3.031-3.128-13.775-12.182-16.529-21.332
	c-1.104-5.023-1.653-18.336,9.368-19.424c11.569-0.544,12.123,15.758,12.123,15.758l18.73-3.804c0,0-0.867-17.656-14.323-25.267
	c-13.455-7.61-31.133-2.99-36.64,2.443c-6.337,5.167-14.604,19.017-7.715,40.214C189.813,74.492,206.614,88.348,206.614,88.348"/>
<polygon fill="#050606" points="258.135,18.522 318.742,18.522 318.742,37.814 298.084,37.814 298.084,88.348 278.522,88.348 
	278.522,37.814 258.135,37.814 "/>
<rect x="278.522" y="133.451" fill="#050606" width="19.836" height="11.687"/>
<polygon fill="#050606" points="333.896,18.522 389.549,18.522 389.549,37.814 353.458,37.814 353.458,72.051 379.631,72.051 
	379.631,88.348 333.896,88.348 "/>
<polygon fill="#050606" points="483.768,18.522 539.421,18.522 539.421,37.814 503.332,37.814 503.332,72.051 529.503,72.051 
	529.503,88.348 483.768,88.348 "/>
<rect x="333.894" y="133.451" fill="#050606" width="55.655" height="11.687"/>
<path fill="#050606" d="M402.218,18.522v69.826h52.855c0,0,7.479-7.062,8.584-19.562V45.69c0,0-0.552-13.037-7.986-20.103
	c-7.442-7.066-18.737-7.066-18.737-7.066H402.218"/>
<path fill="#FFFFFF" d="M421.787,38.087v40.346h12.939c0,0,8.819-1.22,9.646-9.646V47.054c0,0,0-7.427-8.813-8.967H421.787"/>
<rect x="402.498" y="133.451" fill="#050606" width="19.56" height="11.687"/>
<polygon fill="#050606" points="443.546,133.451 464.761,133.451 468.063,145.138 446.3,145.138 "/>
<rect x="484.046" y="133.451" fill="#050606" width="55.375" height="11.687"/>
</svg>
